<?xml version="1.0" encoding="UTF-8" standalone="no"?>
<!DOCTYPE svg PUBLIC "-//W3C//DTD SVG 1.0//EN"
 "http://www.w3.org/TR/2001/REC-SVG-20010904/DTD/svg10.dtd" [
 <!ATTLIST svg xmlns:xlink CDATA #FIXED "http://www.w3.org/1999/xlink">
]>
<!-- Generated by Graphviz version 2.20.2 (Tue Mar &#160;2 21:46:26 UTC 2010)
     For user: (netzapper) Aubrey R Jones,,, -->
<!-- Title: x Pages: 1 -->
<svg width="2836pt" height="2026pt"
 viewBox="0.00 0.00 2836.00 2026.00" xmlns="http://www.w3.org/2000/svg" xmlns:xlink="http://www.w3.org/1999/xlink">
<g id="graph0" class="graph" transform="scale(1 1) rotate(0) translate(4 2022)">
<title>x</title>
<polygon style="fill:white;stroke:white;" points="-4,4 -4,-2022 2832,-2022 2832,4 -4,4"/>
<!-- 90104080 -->
<g id="node1" class="node"><title>90104080</title>
<polygon style="fill:none;stroke:black;" points="878,-2017.5 470,-2017.5 470,-1944.5 878,-1944.5 878,-2017.5"/>
<text text-anchor="middle" x="674" y="-2004.5" style="font-family:Times New Roman;font-size:10.00;">_Start_ ::= &#45;&gt; module_statements [[_End_]]</text>
<text text-anchor="middle" x="674" y="-1991.5" style="font-family:Times New Roman;font-size:10.00;">module_statements ::= &#45;&gt; &#160;&#160;[[_End_, def]]</text>
<text text-anchor="middle" x="674" y="-1978.5" style="font-family:Times New Roman;font-size:10.00;">module_statements ::= &#45;&gt; global_declaration [[_End_, def]]</text>
<text text-anchor="middle" x="674" y="-1965.5" style="font-family:Times New Roman;font-size:10.00;">module_statements ::= &#45;&gt; module_statements global_declaration [[_End_, def]]</text>
<text text-anchor="middle" x="674" y="-1952.5" style="font-family:Times New Roman;font-size:10.00;">global_declaration ::= &#45;&gt; def identifier ( formal_params ) statement [[_End_, def]]</text>
</g>
<!-- 90103520 -->
<g id="node3" class="node"><title>90103520</title>
<polygon style="fill:none;stroke:black;" points="408,-1889.5 1.13687e-13,-1889.5 2.84217e-14,-1842.5 408,-1842.5 408,-1889.5"/>
<text text-anchor="middle" x="204" y="-1876.5" style="font-family:Times New Roman;font-size:10.00;">_Start_ ::= module_statements &#45;&gt; [[_End_]]</text>
<text text-anchor="middle" x="204" y="-1863.5" style="font-family:Times New Roman;font-size:10.00;">module_statements ::= module_statements &#45;&gt; global_declaration [[_End_, def]]</text>
<text text-anchor="middle" x="204" y="-1850.5" style="font-family:Times New Roman;font-size:10.00;">global_declaration ::= &#45;&gt; def identifier ( formal_params ) statement [[_End_, def]]</text>
</g>
<!-- 90104080&#45;&gt;90103520 -->
<g id="edge2" class="edge"><title>90104080&#45;&gt;90103520</title>
<path style="fill:none;stroke:black;" d="M525,-1944C500,-1938 474,-1932 449,-1926 404,-1915 354,-1903 311,-1892"/>
<polygon style="fill:black;stroke:black;" points="311.492,-1888.53 301,-1890 310.119,-1895.39 311.492,-1888.53"/>
<text text-anchor="middle" x="525" y="-1912.9" style="font-family:Times New Roman;font-size:14.00;">module_statements</text>
</g>
<!-- 90146710 -->
<g id="node5" class="node"><title>90146710</title>
<polygon style="fill:none;stroke:black;" points="644,-1884 426,-1884 426,-1848 644,-1848 644,-1884"/>
<text text-anchor="middle" x="535" y="-1863.5" style="font-family:Times New Roman;font-size:10.00;">module_statements ::= &#160;&#160;&#45;&gt; [[_End_, def]]</text>
</g>
<!-- 90104080&#45;&gt;90146710 -->
<g id="edge4" class="edge"><title>90104080&#45;&gt;90146710</title>
<path style="fill:none;stroke:black;" d="M630,-1944C608,-1927 583,-1906 565,-1891"/>
<polygon style="fill:black;stroke:black;" points="566.831,-1887.95 557,-1884 562.221,-1893.22 566.831,-1887.95"/>
<text text-anchor="middle" x="613" y="-1912.9" style="font-family:Times New Roman;font-size:14.00;"> </text>
</g>
<!-- 90176700 -->
<g id="node7" class="node"><title>90176700</title>
<polygon style="fill:none;stroke:black;" points="964,-1884 662,-1884 662,-1848 964,-1848 964,-1884"/>
<text text-anchor="middle" x="813" y="-1863.5" style="font-family:Times New Roman;font-size:10.00;">module_statements ::= global_declaration &#45;&gt; [[_End_, def]]</text>
</g>
<!-- 90104080&#45;&gt;90176700 -->
<g id="edge6" class="edge"><title>90104080&#45;&gt;90176700</title>
<path style="fill:none;stroke:black;" d="M718,-1944C740,-1927 765,-1906 783,-1891"/>
<polygon style="fill:black;stroke:black;" points="785.779,-1893.22 791,-1884 781.169,-1887.95 785.779,-1893.22"/>
<text text-anchor="middle" x="824" y="-1912.9" style="font-family:Times New Roman;font-size:14.00;">global_declaration</text>
</g>
<!-- 90102810 -->
<g id="node9" class="node"><title>90102810</title>
<polygon style="fill:none;stroke:black;" points="1102,-1788 694,-1788 694,-1752 1102,-1752 1102,-1788"/>
<text text-anchor="middle" x="898" y="-1767.5" style="font-family:Times New Roman;font-size:10.00;">global_declaration ::= def &#45;&gt; identifier ( formal_params ) statement [[_End_, def]]</text>
</g>
<!-- 90104080&#45;&gt;90102810 -->
<g id="edge8" class="edge"><title>90104080&#45;&gt;90102810</title>
<path style="fill:none;stroke:black;" d="M861,-1944C913,-1930 959,-1912 973,-1890 985,-1872 982,-1861 973,-1842 965,-1823 949,-1807 934,-1794"/>
<polygon style="fill:black;stroke:black;" points="936.1,-1791.2 926,-1788 931.9,-1796.8 936.1,-1791.2"/>
<text text-anchor="middle" x="993" y="-1861.9" style="font-family:Times New Roman;font-size:14.00;">def</text>
</g>
<!-- 90103520&#45;&gt;90102810 -->
<g id="edge12" class="edge"><title>90103520&#45;&gt;90102810</title>
<path style="fill:none;stroke:black;" d="M374,-1842C492,-1826 646,-1804 757,-1789"/>
<polygon style="fill:black;stroke:black;" points="757.398,-1792.48 767,-1788 756.701,-1785.51 757.398,-1792.48"/>
<text text-anchor="middle" x="625" y="-1810.9" style="font-family:Times New Roman;font-size:14.00;">def</text>
</g>
<!-- 90103170 -->
<g id="node11" class="node"><title>90103170</title>
<polygon style="fill:none;stroke:black;" points="405,-1788 3,-1788 3,-1752 405,-1752 405,-1788"/>
<text text-anchor="middle" x="204" y="-1767.5" style="font-family:Times New Roman;font-size:10.00;">module_statements ::= module_statements global_declaration &#45;&gt; [[_End_, def]]</text>
</g>
<!-- 90103520&#45;&gt;90103170 -->
<g id="edge10" class="edge"><title>90103520&#45;&gt;90103170</title>
<path style="fill:none;stroke:black;" d="M204,-1842C204,-1829 204,-1812 204,-1798"/>
<polygon style="fill:black;stroke:black;" points="207.5,-1798 204,-1788 200.5,-1798 207.5,-1798"/>
<text text-anchor="middle" x="267" y="-1810.9" style="font-family:Times New Roman;font-size:14.00;">global_declaration</text>
</g>
<!-- 90102480 -->
<g id="node14" class="node"><title>90102480</title>
<polygon style="fill:none;stroke:black;" points="1102,-1698 694,-1698 694,-1662 1102,-1662 1102,-1698"/>
<text text-anchor="middle" x="898" y="-1677.5" style="font-family:Times New Roman;font-size:10.00;">global_declaration ::= def identifier &#45;&gt; ( formal_params ) statement [[_End_, def]]</text>
</g>
<!-- 90102810&#45;&gt;90102480 -->
<g id="edge14" class="edge"><title>90102810&#45;&gt;90102480</title>
<path style="fill:none;stroke:black;" d="M898,-1752C898,-1739 898,-1723 898,-1708"/>
<polygon style="fill:black;stroke:black;" points="901.5,-1708 898,-1698 894.5,-1708 901.5,-1708"/>
<text text-anchor="middle" x="929" y="-1720.9" style="font-family:Times New Roman;font-size:14.00;">identifier</text>
</g>
<!-- 90102150 -->
<g id="node16" class="node"><title>90102150</title>
<polygon style="fill:none;stroke:black;" points="1102,-1608 694,-1608 694,-1572 1102,-1572 1102,-1608"/>
<text text-anchor="middle" x="898" y="-1587.5" style="font-family:Times New Roman;font-size:10.00;">global_declaration ::= def identifier ( &#45;&gt; formal_params ) statement [[_End_, def]]</text>
</g>
<!-- 90102480&#45;&gt;90102150 -->
<g id="edge16" class="edge"><title>90102480&#45;&gt;90102150</title>
<path style="fill:none;stroke:black;" d="M898,-1662C898,-1649 898,-1633 898,-1618"/>
<polygon style="fill:black;stroke:black;" points="901.5,-1618 898,-1608 894.5,-1618 901.5,-1618"/>
<text text-anchor="middle" x="901" y="-1630.9" style="font-family:Times New Roman;font-size:14.00;">(</text>
</g>
<!-- 90101820 -->
<g id="node18" class="node"><title>90101820</title>
<polygon style="fill:none;stroke:black;" points="1102,-1518 694,-1518 694,-1482 1102,-1482 1102,-1518"/>
<text text-anchor="middle" x="898" y="-1497.5" style="font-family:Times New Roman;font-size:10.00;">global_declaration ::= def identifier ( formal_params &#45;&gt; ) statement [[_End_, def]]</text>
</g>
<!-- 90102150&#45;&gt;90101820 -->
<g id="edge18" class="edge"><title>90102150&#45;&gt;90101820</title>
<path style="fill:none;stroke:black;" d="M898,-1572C898,-1559 898,-1543 898,-1528"/>
<polygon style="fill:black;stroke:black;" points="901.5,-1528 898,-1518 894.5,-1528 901.5,-1528"/>
<text text-anchor="middle" x="949" y="-1540.9" style="font-family:Times New Roman;font-size:14.00;">formal_params</text>
</g>
<!-- 90100890 -->
<g id="node20" class="node"><title>90100890</title>
<polygon style="fill:none;stroke:black;" points="1102,-1428 694,-1428 694,-1342 1102,-1342 1102,-1428"/>
<text text-anchor="middle" x="898" y="-1415" style="font-family:Times New Roman;font-size:10.00;">global_declaration ::= def identifier ( formal_params ) &#45;&gt; statement [[_End_, def]]</text>
<text text-anchor="middle" x="898" y="-1402" style="font-family:Times New Roman;font-size:10.00;">statement ::= &#45;&gt; primary_statement statement_term [[_End_, def]]</text>
<text text-anchor="middle" x="898" y="-1389" style="font-family:Times New Roman;font-size:10.00;">statement ::= &#45;&gt; { statement primary_statement } [[_End_, def]]</text>
<text text-anchor="middle" x="898" y="-1376" style="font-family:Times New Roman;font-size:10.00;">primary_statement ::= &#45;&gt; Expr = Expr [[statement_term]]</text>
<text text-anchor="middle" x="898" y="-1363" style="font-family:Times New Roman;font-size:10.00;">primary_statement ::= &#45;&gt; if ( Expr ) statement elsif_list else [[statement_term]]</text>
<text text-anchor="middle" x="898" y="-1350" style="font-family:Times New Roman;font-size:10.00;">primary_statement ::= &#45;&gt; return Expr [[statement_term]]</text>
</g>
<!-- 90101820&#45;&gt;90100890 -->
<g id="edge20" class="edge"><title>90101820&#45;&gt;90100890</title>
<path style="fill:none;stroke:black;" d="M898,-1482C898,-1470 898,-1454 898,-1438"/>
<polygon style="fill:black;stroke:black;" points="901.5,-1438 898,-1428 894.5,-1438 901.5,-1438"/>
<text text-anchor="middle" x="901" y="-1450.9" style="font-family:Times New Roman;font-size:14.00;">)</text>
</g>
<!-- 90100460 -->
<g id="node22" class="node"><title>90100460</title>
<polygon style="fill:none;stroke:black;" points="562,-1263 154,-1263 154,-1227 562,-1227 562,-1263"/>
<text text-anchor="middle" x="358" y="-1242.5" style="font-family:Times New Roman;font-size:10.00;">global_declaration ::= def identifier ( formal_params ) statement &#45;&gt; [[_End_, def]]</text>
</g>
<!-- 90100890&#45;&gt;90100460 -->
<g id="edge22" class="edge"><title>90100890&#45;&gt;90100460</title>
<path style="fill:none;stroke:black;" d="M694,-1367C632,-1357 565,-1344 505,-1324 465,-1310 423,-1286 394,-1268"/>
<polygon style="fill:black;stroke:black;" points="395.441,-1264.8 385,-1263 392.042,-1270.92 395.441,-1264.8"/>
<text text-anchor="middle" x="541" y="-1310.9" style="font-family:Times New Roman;font-size:14.00;">statement</text>
</g>
<!-- 90100100 -->
<g id="node24" class="node"><title>90100100</title>
<polygon style="fill:none;stroke:black;" points="1117,-216 509,-216 509,-180 1117,-180 1117,-216"/>
<text text-anchor="middle" x="813" y="-195.5" style="font-family:Times New Roman;font-size:10.00;">statement ::= primary_statement &#45;&gt; statement_term [[Expr, _End_, def, eslif, if, return, single_elsif, statement_term, {, }]]</text>
</g>
<!-- 90100890&#45;&gt;90100100 -->
<g id="edge24" class="edge"><title>90100890&#45;&gt;90100100</title>
<path style="fill:none;stroke:black;" d="M740,-1342C665,-1316 590,-1282 590,-1245 590,-1245 590,-1245 590,-320 590,-266 641,-236 693,-219"/>
<polygon style="fill:black;stroke:black;" points="694.427,-222.226 703,-216 692.416,-215.521 694.427,-222.226"/>
<text text-anchor="middle" x="656" y="-831.9" style="font-family:Times New Roman;font-size:14.00;">primary_statement</text>
</g>
<!-- 90129450 -->
<g id="node26" class="node"><title>90129450</title>
<polygon style="fill:none;stroke:black;" points="1582,-1288 986,-1288 986,-1202 1582,-1202 1582,-1288"/>
<text text-anchor="middle" x="1284" y="-1275" style="font-family:Times New Roman;font-size:10.00;">statement ::= { &#45;&gt; statement primary_statement } [[Expr, _End_, def, eslif, if, return, single_elsif, statement_term, {, }]]</text>
<text text-anchor="middle" x="1284" y="-1262" style="font-family:Times New Roman;font-size:10.00;">statement ::= &#45;&gt; primary_statement statement_term [[Expr, if, return]]</text>
<text text-anchor="middle" x="1284" y="-1249" style="font-family:Times New Roman;font-size:10.00;">statement ::= &#45;&gt; { statement primary_statement } [[Expr, if, return]]</text>
<text text-anchor="middle" x="1284" y="-1236" style="font-family:Times New Roman;font-size:10.00;">primary_statement ::= &#45;&gt; Expr = Expr [[statement_term]]</text>
<text text-anchor="middle" x="1284" y="-1223" style="font-family:Times New Roman;font-size:10.00;">primary_statement ::= &#45;&gt; if ( Expr ) statement elsif_list else [[statement_term]]</text>
<text text-anchor="middle" x="1284" y="-1210" style="font-family:Times New Roman;font-size:10.00;">primary_statement ::= &#45;&gt; return Expr [[statement_term]]</text>
</g>
<!-- 90100890&#45;&gt;90129450 -->
<g id="edge26" class="edge"><title>90100890&#45;&gt;90129450</title>
<path style="fill:none;stroke:black;" d="M1017,-1342C1061,-1326 1111,-1308 1156,-1291"/>
<polygon style="fill:black;stroke:black;" points="1157.43,-1294.23 1166,-1288 1155.42,-1287.52 1157.43,-1294.23"/>
<text text-anchor="middle" x="1109" y="-1310.9" style="font-family:Times New Roman;font-size:14.00;">{</text>
</g>
<!-- 90127580 -->
<g id="node28" class="node"><title>90127580</title>
<polygon style="fill:none;stroke:black;" points="1556,-216 1248,-216 1248,-180 1556,-180 1556,-216"/>
<text text-anchor="middle" x="1402" y="-195.5" style="font-family:Times New Roman;font-size:10.00;">primary_statement ::= Expr &#45;&gt; = Expr [[statement_term, }]]</text>
</g>
<!-- 90100890&#45;&gt;90127580 -->
<g id="edge28" class="edge"><title>90100890&#45;&gt;90127580</title>
<path style="fill:none;stroke:black;" d="M820,-1342C788,-1318 758,-1285 758,-1245 758,-1245 758,-1245 758,-881 758,-809 775,-792 775,-721 775,-721 775,-721 775,-320 775,-287 799,-283 827,-270 898,-236 1095,-217 1238,-207"/>
<polygon style="fill:black;stroke:black;" points="1238.4,-210.478 1248,-206 1237.7,-203.512 1238.4,-210.478"/>
<text text-anchor="middle" x="780" y="-831.9" style="font-family:Times New Roman;font-size:14.00;">Expr</text>
</g>
<!-- 90126440 -->
<g id="node30" class="node"><title>90126440</title>
<polygon style="fill:none;stroke:black;" points="2026,-1034 1616,-1034 1616,-998 2026,-998 2026,-1034"/>
<text text-anchor="middle" x="1821" y="-1013.5" style="font-family:Times New Roman;font-size:10.00;">primary_statement ::= if &#45;&gt; ( Expr ) statement elsif_list else [[statement_term, }]]</text>
</g>
<!-- 90100890&#45;&gt;90126440 -->
<g id="edge30" class="edge"><title>90100890&#45;&gt;90126440</title>
<path style="fill:none;stroke:black;" d="M1102,-1377C1419,-1360 2006,-1308 2128,-1148 2174,-1087 2092,-1053 2001,-1036"/>
<polygon style="fill:black;stroke:black;" points="2001.49,-1032.53 1991,-1034 2000.12,-1039.39 2001.49,-1032.53"/>
<text text-anchor="middle" x="2112" y="-1170.9" style="font-family:Times New Roman;font-size:14.00;">if</text>
</g>
<!-- 90153020 -->
<g id="node32" class="node"><title>90153020</title>
<polygon style="fill:none;stroke:black;" points="2821,-216 2515,-216 2515,-180 2821,-180 2821,-216"/>
<text text-anchor="middle" x="2668" y="-195.5" style="font-family:Times New Roman;font-size:10.00;">primary_statement ::= return &#45;&gt; Expr [[statement_term, }]]</text>
</g>
<!-- 90100890&#45;&gt;90153020 -->
<g id="edge32" class="edge"><title>90100890&#45;&gt;90153020</title>
<path style="fill:none;stroke:black;" d="M1102,-1380C1590,-1368 2784,-1329 2784,-1245 2784,-1245 2784,-1245 2784,-320 2784,-277 2745,-242 2712,-221"/>
<polygon style="fill:black;stroke:black;" points="2713.44,-217.797 2703,-216 2710.04,-223.916 2713.44,-217.797"/>
<text text-anchor="middle" x="2806" y="-831.9" style="font-family:Times New Roman;font-size:14.00;">return</text>
</g>
<!-- 90130450 -->
<g id="node34" class="node"><title>90130450</title>
<polygon style="fill:none;stroke:black;" points="1117,-126 509,-126 509,-90 1117,-90 1117,-126"/>
<text text-anchor="middle" x="813" y="-105.5" style="font-family:Times New Roman;font-size:10.00;">statement ::= primary_statement statement_term &#45;&gt; [[Expr, _End_, def, eslif, if, return, single_elsif, statement_term, {, }]]</text>
</g>
<!-- 90100100&#45;&gt;90130450 -->
<g id="edge34" class="edge"><title>90100100&#45;&gt;90130450</title>
<path style="fill:none;stroke:black;" d="M813,-180C813,-167 813,-151 813,-136"/>
<polygon style="fill:black;stroke:black;" points="816.5,-136 813,-126 809.5,-136 816.5,-136"/>
<text text-anchor="middle" x="869" y="-148.9" style="font-family:Times New Roman;font-size:14.00;">statement_term</text>
</g>
<!-- 90129450&#45;&gt;90100100 -->
<g id="edge38" class="edge"><title>90129450&#45;&gt;90100100</title>
<path style="fill:none;stroke:black;" d="M986,-1210C895,-1191 818,-1161 818,-1118 818,-1118 818,-1118 818,-881 818,-851 817,-837 794,-818 769,-795 750,-815 719,-800 672,-775 628,-774 628,-721 628,-721 628,-721 628,-320 628,-268 679,-237 727,-219"/>
<polygon style="fill:black;stroke:black;" points="728.427,-222.226 737,-216 726.416,-215.521 728.427,-222.226"/>
<text text-anchor="middle" x="791" y="-786.9" style="font-family:Times New Roman;font-size:14.00;">primary_statement</text>
</g>
<!-- 90129450&#45;&gt;90129450 -->
<g id="edge40" class="edge"><title>90129450&#45;&gt;90129450</title>
<path style="fill:none;stroke:black;" d="M1582,-1252C1593,-1250 1600,-1248 1600,-1245 1600,-1243 1597,-1241 1592,-1240"/>
<polygon style="fill:black;stroke:black;" points="1592.49,-1236.53 1582,-1238 1591.12,-1243.39 1592.49,-1236.53"/>
<text text-anchor="middle" x="1605" y="-1240.9" style="font-family:Times New Roman;font-size:14.00;">{</text>
</g>
<!-- 90129450&#45;&gt;90127580 -->
<g id="edge42" class="edge"><title>90129450&#45;&gt;90127580</title>
<path style="fill:none;stroke:black;" d="M993,-1202C917,-1183 856,-1155 856,-1118 856,-1118 856,-1118 856,-836 856,-710 781,-363 865,-270 887,-245 979,-257 1011,-252 1049,-245 1058,-240 1095,-234 1142,-227 1192,-220 1238,-214"/>
<polygon style="fill:black;stroke:black;" points="1238.4,-217.478 1248,-213 1237.7,-210.512 1238.4,-217.478"/>
<text text-anchor="middle" x="872" y="-786.9" style="font-family:Times New Roman;font-size:14.00;">Expr</text>
</g>
<!-- 90129450&#45;&gt;90126440 -->
<g id="edge44" class="edge"><title>90129450&#45;&gt;90126440</title>
<path style="fill:none;stroke:black;" d="M1364,-1202C1374,-1196 1383,-1190 1392,-1184 1447,-1146 1447,-1117 1506,-1088 1556,-1064 1614,-1047 1666,-1036"/>
<polygon style="fill:black;stroke:black;" points="1666.88,-1039.39 1676,-1034 1665.51,-1032.53 1666.88,-1039.39"/>
<text text-anchor="middle" x="1510" y="-1113.9" style="font-family:Times New Roman;font-size:14.00;">if</text>
</g>
<!-- 90129450&#45;&gt;90153020 -->
<g id="edge46" class="edge"><title>90129450&#45;&gt;90153020</title>
<path style="fill:none;stroke:black;" d="M1582,-1218C1975,-1181 2624,-1108 2706,-1034 2727,-1014 2725,-1000 2725,-971 2725,-971 2725,-971 2725,-320 2725,-279 2714,-269 2695,-234 2693,-231 2691,-228 2689,-224"/>
<polygon style="fill:black;stroke:black;" points="2691.8,-221.9 2683,-216 2686.2,-226.1 2691.8,-221.9"/>
<text text-anchor="middle" x="2747" y="-786.9" style="font-family:Times New Roman;font-size:14.00;">return</text>
</g>
<!-- 90128720 -->
<g id="node36" class="node"><title>90128720</title>
<polygon style="fill:none;stroke:black;" points="2119,-1148 1523,-1148 1523,-1088 2119,-1088 2119,-1148"/>
<text text-anchor="middle" x="1821" y="-1135" style="font-family:Times New Roman;font-size:10.00;">statement ::= { statement &#45;&gt; primary_statement } [[Expr, _End_, def, eslif, if, return, single_elsif, statement_term, {, }]]</text>
<text text-anchor="middle" x="1821" y="-1122" style="font-family:Times New Roman;font-size:10.00;">primary_statement ::= &#45;&gt; Expr = Expr [[}]]</text>
<text text-anchor="middle" x="1821" y="-1109" style="font-family:Times New Roman;font-size:10.00;">primary_statement ::= &#45;&gt; if ( Expr ) statement elsif_list else [[}]]</text>
<text text-anchor="middle" x="1821" y="-1096" style="font-family:Times New Roman;font-size:10.00;">primary_statement ::= &#45;&gt; return Expr [[}]]</text>
</g>
<!-- 90129450&#45;&gt;90128720 -->
<g id="edge36" class="edge"><title>90129450&#45;&gt;90128720</title>
<path style="fill:none;stroke:black;" d="M1466,-1202C1537,-1185 1618,-1166 1684,-1150"/>
<polygon style="fill:black;stroke:black;" points="1684.88,-1153.39 1694,-1148 1683.51,-1146.53 1684.88,-1153.39"/>
<text text-anchor="middle" x="1653" y="-1170.9" style="font-family:Times New Roman;font-size:14.00;">statement</text>
</g>
<!-- 90127250 -->
<g id="node50" class="node"><title>90127250</title>
<polygon style="fill:none;stroke:black;" points="1556,-126 1248,-126 1248,-90 1556,-90 1556,-126"/>
<text text-anchor="middle" x="1402" y="-105.5" style="font-family:Times New Roman;font-size:10.00;">primary_statement ::= Expr = &#45;&gt; Expr [[statement_term, }]]</text>
</g>
<!-- 90127580&#45;&gt;90127250 -->
<g id="edge58" class="edge"><title>90127580&#45;&gt;90127250</title>
<path style="fill:none;stroke:black;" d="M1402,-180C1402,-167 1402,-151 1402,-136"/>
<polygon style="fill:black;stroke:black;" points="1405.5,-136 1402,-126 1398.5,-136 1405.5,-136"/>
<text text-anchor="middle" x="1408" y="-148.9" style="font-family:Times New Roman;font-size:14.00;">=</text>
</g>
<!-- 90126110 -->
<g id="node54" class="node"><title>90126110</title>
<polygon style="fill:none;stroke:black;" points="1875,-944 1465,-944 1465,-908 1875,-908 1875,-944"/>
<text text-anchor="middle" x="1670" y="-923.5" style="font-family:Times New Roman;font-size:10.00;">primary_statement ::= if ( &#45;&gt; Expr ) statement elsif_list else [[statement_term, }]]</text>
</g>
<!-- 90126440&#45;&gt;90126110 -->
<g id="edge62" class="edge"><title>90126440&#45;&gt;90126110</title>
<path style="fill:none;stroke:black;" d="M1790,-998C1767,-984 1734,-965 1709,-949"/>
<polygon style="fill:black;stroke:black;" points="1710.44,-945.797 1700,-944 1707.04,-951.916 1710.44,-945.797"/>
<text text-anchor="middle" x="1760" y="-966.9" style="font-family:Times New Roman;font-size:14.00;">(</text>
</g>
<!-- 90152690 -->
<g id="node82" class="node"><title>90152690</title>
<polygon style="fill:none;stroke:black;" points="2821,-126 2515,-126 2515,-90 2821,-90 2821,-126"/>
<text text-anchor="middle" x="2668" y="-105.5" style="font-family:Times New Roman;font-size:10.00;">primary_statement ::= return Expr &#45;&gt; [[statement_term, }]]</text>
</g>
<!-- 90153020&#45;&gt;90152690 -->
<g id="edge100" class="edge"><title>90153020&#45;&gt;90152690</title>
<path style="fill:none;stroke:black;" d="M2668,-180C2668,-167 2668,-151 2668,-136"/>
<polygon style="fill:black;stroke:black;" points="2671.5,-136 2668,-126 2664.5,-136 2671.5,-136"/>
<text text-anchor="middle" x="2684" y="-148.9" style="font-family:Times New Roman;font-size:14.00;">Expr</text>
</g>
<!-- 90128720&#45;&gt;90127580 -->
<g id="edge50" class="edge"><title>90128720&#45;&gt;90127580</title>
<path style="fill:none;stroke:black;" d="M1665,-1088C1548,-1063 1400,-1023 1356,-980 1301,-924 1298,-706 1252,-642 1196,-562 1120,-597 1076,-510 1053,-462 1043,-311 1076,-270 1098,-243 1168,-226 1238,-215"/>
<polygon style="fill:black;stroke:black;" points="1238.4,-218.478 1248,-214 1237.7,-211.512 1238.4,-218.478"/>
<text text-anchor="middle" x="1309" y="-716.9" style="font-family:Times New Roman;font-size:14.00;">Expr</text>
</g>
<!-- 90128720&#45;&gt;90126440 -->
<g id="edge52" class="edge"><title>90128720&#45;&gt;90126440</title>
<path style="fill:none;stroke:black;" d="M1821,-1088C1821,-1075 1821,-1058 1821,-1044"/>
<polygon style="fill:black;stroke:black;" points="1824.5,-1044 1821,-1034 1817.5,-1044 1824.5,-1044"/>
<text text-anchor="middle" x="1825" y="-1056.9" style="font-family:Times New Roman;font-size:14.00;">if</text>
</g>
<!-- 90128720&#45;&gt;90153020 -->
<g id="edge54" class="edge"><title>90128720&#45;&gt;90153020</title>
<path style="fill:none;stroke:black;" d="M1943,-1088C1976,-1075 2009,-1058 2035,-1034 2079,-991 2052,-955 2092,-908 2293,-668 2527,-786 2673,-510 2722,-416 2693,-284 2677,-226"/>
<polygon style="fill:black;stroke:black;" points="2680.23,-224.573 2674,-216 2673.52,-226.584 2680.23,-224.573"/>
<text text-anchor="middle" x="2529" y="-716.9" style="font-family:Times New Roman;font-size:14.00;">return</text>
</g>
<!-- 90128330 -->
<g id="node43" class="node"><title>90128330</title>
<polygon style="fill:none;stroke:black;" points="2697,-1034 2101,-1034 2101,-998 2697,-998 2697,-1034"/>
<text text-anchor="middle" x="2399" y="-1013.5" style="font-family:Times New Roman;font-size:10.00;">statement ::= { statement primary_statement &#45;&gt; } [[Expr, _End_, def, eslif, if, return, single_elsif, statement_term, {, }]]</text>
</g>
<!-- 90128720&#45;&gt;90128330 -->
<g id="edge48" class="edge"><title>90128720&#45;&gt;90128330</title>
<path style="fill:none;stroke:black;" d="M1991,-1088C2087,-1072 2203,-1051 2287,-1036"/>
<polygon style="fill:black;stroke:black;" points="2287.88,-1039.39 2297,-1034 2286.51,-1032.53 2287.88,-1039.39"/>
<text text-anchor="middle" x="2243" y="-1056.9" style="font-family:Times New Roman;font-size:14.00;">primary_statement</text>
</g>
<!-- 90128000 -->
<g id="node48" class="node"><title>90128000</title>
<polygon style="fill:none;stroke:black;" points="2697,-944 2101,-944 2101,-908 2697,-908 2697,-944"/>
<text text-anchor="middle" x="2399" y="-923.5" style="font-family:Times New Roman;font-size:10.00;">statement ::= { statement primary_statement } &#45;&gt; [[Expr, _End_, def, eslif, if, return, single_elsif, statement_term, {, }]]</text>
</g>
<!-- 90128330&#45;&gt;90128000 -->
<g id="edge56" class="edge"><title>90128330&#45;&gt;90128000</title>
<path style="fill:none;stroke:black;" d="M2399,-998C2399,-985 2399,-969 2399,-954"/>
<polygon style="fill:black;stroke:black;" points="2402.5,-954 2399,-944 2395.5,-954 2402.5,-954"/>
<text text-anchor="middle" x="2403" y="-966.9" style="font-family:Times New Roman;font-size:14.00;">}</text>
</g>
<!-- 90126920 -->
<g id="node52" class="node"><title>90126920</title>
<polygon style="fill:none;stroke:black;" points="1556,-36 1248,-36 1248,-1.06581e-14 1556,-0 1556,-36"/>
<text text-anchor="middle" x="1402" y="-15.5" style="font-family:Times New Roman;font-size:10.00;">primary_statement ::= Expr = Expr &#45;&gt; [[statement_term, }]]</text>
</g>
<!-- 90127250&#45;&gt;90126920 -->
<g id="edge60" class="edge"><title>90127250&#45;&gt;90126920</title>
<path style="fill:none;stroke:black;" d="M1402,-90C1402,-77 1402,-61 1402,-46"/>
<polygon style="fill:black;stroke:black;" points="1405.5,-46 1402,-36 1398.5,-46 1405.5,-46"/>
<text text-anchor="middle" x="1418" y="-58.9" style="font-family:Times New Roman;font-size:14.00;">Expr</text>
</g>
<!-- 90125780 -->
<g id="node56" class="node"><title>90125780</title>
<polygon style="fill:none;stroke:black;" points="1875,-854 1465,-854 1465,-818 1875,-818 1875,-854"/>
<text text-anchor="middle" x="1670" y="-833.5" style="font-family:Times New Roman;font-size:10.00;">primary_statement ::= if ( Expr &#45;&gt; ) statement elsif_list else [[statement_term, }]]</text>
</g>
<!-- 90126110&#45;&gt;90125780 -->
<g id="edge64" class="edge"><title>90126110&#45;&gt;90125780</title>
<path style="fill:none;stroke:black;" d="M1670,-908C1670,-895 1670,-879 1670,-864"/>
<polygon style="fill:black;stroke:black;" points="1673.5,-864 1670,-854 1666.5,-864 1673.5,-864"/>
<text text-anchor="middle" x="1686" y="-876.9" style="font-family:Times New Roman;font-size:14.00;">Expr</text>
</g>
<!-- 90124860 -->
<g id="node58" class="node"><title>90124860</title>
<polygon style="fill:none;stroke:black;" points="1967,-764 1415,-764 1415,-678 1967,-678 1967,-764"/>
<text text-anchor="middle" x="1691" y="-751" style="font-family:Times New Roman;font-size:10.00;">primary_statement ::= if ( Expr ) &#45;&gt; statement elsif_list else [[statement_term, }]]</text>
<text text-anchor="middle" x="1691" y="-738" style="font-family:Times New Roman;font-size:10.00;">statement ::= &#45;&gt; primary_statement statement_term [[Expr, eslif, if, return, single_elsif, statement_term, {, }]]</text>
<text text-anchor="middle" x="1691" y="-725" style="font-family:Times New Roman;font-size:10.00;">statement ::= &#45;&gt; { statement primary_statement } [[Expr, eslif, if, return, single_elsif, statement_term, {, }]]</text>
<text text-anchor="middle" x="1691" y="-712" style="font-family:Times New Roman;font-size:10.00;">primary_statement ::= &#45;&gt; Expr = Expr [[statement_term]]</text>
<text text-anchor="middle" x="1691" y="-699" style="font-family:Times New Roman;font-size:10.00;">primary_statement ::= &#45;&gt; if ( Expr ) statement elsif_list else [[statement_term]]</text>
<text text-anchor="middle" x="1691" y="-686" style="font-family:Times New Roman;font-size:10.00;">primary_statement ::= &#45;&gt; return Expr [[statement_term]]</text>
</g>
<!-- 90125780&#45;&gt;90124860 -->
<g id="edge66" class="edge"><title>90125780&#45;&gt;90124860</title>
<path style="fill:none;stroke:black;" d="M1673,-818C1675,-806 1678,-790 1681,-774"/>
<polygon style="fill:black;stroke:black;" points="1684.47,-774.492 1683,-764 1677.61,-773.119 1684.47,-774.492"/>
<text text-anchor="middle" x="1684" y="-786.9" style="font-family:Times New Roman;font-size:14.00;">)</text>
</g>
<!-- 90124860&#45;&gt;90100100 -->
<g id="edge70" class="edge"><title>90124860&#45;&gt;90100100</title>
<path style="fill:none;stroke:black;" d="M1478,-678C1289,-637 1029,-572 944,-510 849,-440 823,-289 815,-226"/>
<polygon style="fill:black;stroke:black;" points="818.478,-225.602 814,-216 811.512,-226.299 818.478,-225.602"/>
<text text-anchor="middle" x="1013" y="-462.9" style="font-family:Times New Roman;font-size:14.00;">primary_statement</text>
</g>
<!-- 90124860&#45;&gt;90129450 -->
<g id="edge72" class="edge"><title>90124860&#45;&gt;90129450</title>
<path style="fill:none;stroke:black;" d="M1542,-764C1511,-778 1481,-795 1456,-818 1400,-869 1378,-894 1378,-971 1378,-1118 1378,-1118 1378,-1118 1378,-1147 1362,-1173 1344,-1195"/>
<polygon style="fill:black;stroke:black;" points="1341.6,-1192.45 1337,-1202 1346.55,-1197.4 1341.6,-1192.45"/>
<text text-anchor="middle" x="1383" y="-966.9" style="font-family:Times New Roman;font-size:14.00;">{</text>
</g>
<!-- 90124860&#45;&gt;90127580 -->
<g id="edge74" class="edge"><title>90124860&#45;&gt;90127580</title>
<path style="fill:none;stroke:black;" d="M1669,-678C1661,-661 1654,-642 1650,-624 1644,-590 1651,-580 1651,-546 1652,-538 1653,-535 1651,-528 1643,-467 1600,-316 1560,-270 1540,-247 1512,-231 1485,-220"/>
<polygon style="fill:black;stroke:black;" points="1485.58,-216.464 1475,-216 1482.98,-222.964 1485.58,-216.464"/>
<text text-anchor="middle" x="1666" y="-462.9" style="font-family:Times New Roman;font-size:14.00;">Expr</text>
</g>
<!-- 90124860&#45;&gt;90126440 -->
<g id="edge76" class="edge"><title>90124860&#45;&gt;90126440</title>
<path style="fill:none;stroke:black;" d="M1826,-764C1849,-778 1870,-795 1884,-818 1913,-865 1903,-891 1884,-944 1877,-962 1864,-978 1851,-991"/>
<polygon style="fill:black;stroke:black;" points="1848.22,-988.781 1843,-998 1852.83,-994.049 1848.22,-988.781"/>
<text text-anchor="middle" x="1905" y="-876.9" style="font-family:Times New Roman;font-size:14.00;">if</text>
</g>
<!-- 90124860&#45;&gt;90153020 -->
<g id="edge78" class="edge"><title>90124860&#45;&gt;90153020</title>
<path style="fill:none;stroke:black;" d="M1967,-687C2196,-653 2498,-594 2588,-510 2630,-470 2655,-295 2665,-226"/>
<polygon style="fill:black;stroke:black;" points="2668.49,-226.299 2666,-216 2661.52,-225.602 2668.49,-226.299"/>
<text text-anchor="middle" x="2647" y="-462.9" style="font-family:Times New Roman;font-size:14.00;">return</text>
</g>
<!-- 90123960 -->
<g id="node60" class="node"><title>90123960</title>
<polygon style="fill:none;stroke:black;" points="2091,-624 1659,-624 1659,-564 2091,-564 2091,-624"/>
<text text-anchor="middle" x="1875" y="-611" style="font-family:Times New Roman;font-size:10.00;">primary_statement ::= if ( Expr ) statement &#45;&gt; elsif_list else [[statement_term, }]]</text>
<text text-anchor="middle" x="1875" y="-598" style="font-family:Times New Roman;font-size:10.00;">elsif_list ::= &#45;&gt; [[Expr, if, return, single_elsif, statement_term, {, }]]</text>
<text text-anchor="middle" x="1875" y="-585" style="font-family:Times New Roman;font-size:10.00;">elsif_list ::= &#45;&gt; eslif statement [[Expr, if, return, single_elsif, statement_term, {, }]]</text>
<text text-anchor="middle" x="1875" y="-572" style="font-family:Times New Roman;font-size:10.00;">elsif_list ::= &#45;&gt; elsif_list single_elsif [[Expr, if, return, single_elsif, statement_term, {, }]]</text>
</g>
<!-- 90124860&#45;&gt;90123960 -->
<g id="edge68" class="edge"><title>90124860&#45;&gt;90123960</title>
<path style="fill:none;stroke:black;" d="M1754,-678C1776,-662 1801,-645 1824,-630"/>
<polygon style="fill:black;stroke:black;" points="1826.1,-632.8 1832,-624 1821.9,-627.2 1826.1,-632.8"/>
<text text-anchor="middle" x="1839" y="-646.9" style="font-family:Times New Roman;font-size:14.00;">statement</text>
</g>
<!-- 90123230 -->
<g id="node67" class="node"><title>90123230</title>
<polygon style="fill:none;stroke:black;" points="2579,-497 2147,-497 2147,-437 2579,-437 2579,-497"/>
<text text-anchor="middle" x="2363" y="-484" style="font-family:Times New Roman;font-size:10.00;">primary_statement ::= if ( Expr ) statement elsif_list &#45;&gt; else [[statement_term, }]]</text>
<text text-anchor="middle" x="2363" y="-471" style="font-family:Times New Roman;font-size:10.00;">elsif_list ::= elsif_list &#45;&gt; single_elsif [[Expr, if, return, single_elsif, statement_term, {, }]]</text>
<text text-anchor="middle" x="2363" y="-458" style="font-family:Times New Roman;font-size:10.00;">else ::= &#45;&gt; [[Expr, if, return, statement_term, {, }]]</text>
<text text-anchor="middle" x="2363" y="-445" style="font-family:Times New Roman;font-size:10.00;">else ::= &#45;&gt; else statement [[Expr, if, return, statement_term, {, }]]</text>
</g>
<!-- 90123960&#45;&gt;90123230 -->
<g id="edge80" class="edge"><title>90123960&#45;&gt;90123230</title>
<path style="fill:none;stroke:black;" d="M1990,-564C2065,-545 2161,-519 2237,-499"/>
<polygon style="fill:black;stroke:black;" points="2237.88,-502.393 2247,-497 2236.51,-495.529 2237.88,-502.393"/>
<text text-anchor="middle" x="2146" y="-532.9" style="font-family:Times New Roman;font-size:14.00;">elsif_list</text>
</g>
<!-- 90151140 -->
<g id="node69" class="node"><title>90151140</title>
<polygon style="fill:none;stroke:black;" points="1613,-510 1085,-510 1085,-424 1613,-424 1613,-510"/>
<text text-anchor="middle" x="1349" y="-497" style="font-family:Times New Roman;font-size:10.00;">elsif_list ::= eslif &#45;&gt; statement [[Expr, if, return, single_elsif, statement_term, {, }]]</text>
<text text-anchor="middle" x="1349" y="-484" style="font-family:Times New Roman;font-size:10.00;">statement ::= &#45;&gt; primary_statement statement_term [[Expr, if, return, single_elsif, statement_term, {, }]]</text>
<text text-anchor="middle" x="1349" y="-471" style="font-family:Times New Roman;font-size:10.00;">statement ::= &#45;&gt; { statement primary_statement } [[Expr, if, return, single_elsif, statement_term, {, }]]</text>
<text text-anchor="middle" x="1349" y="-458" style="font-family:Times New Roman;font-size:10.00;">primary_statement ::= &#45;&gt; Expr = Expr [[statement_term]]</text>
<text text-anchor="middle" x="1349" y="-445" style="font-family:Times New Roman;font-size:10.00;">primary_statement ::= &#45;&gt; if ( Expr ) statement elsif_list else [[statement_term]]</text>
<text text-anchor="middle" x="1349" y="-432" style="font-family:Times New Roman;font-size:10.00;">primary_statement ::= &#45;&gt; return Expr [[statement_term]]</text>
</g>
<!-- 90123960&#45;&gt;90151140 -->
<g id="edge82" class="edge"><title>90123960&#45;&gt;90151140</title>
<path style="fill:none;stroke:black;" d="M1751,-564C1687,-549 1608,-530 1538,-512"/>
<polygon style="fill:black;stroke:black;" points="1538.49,-508.529 1528,-510 1537.12,-515.393 1538.49,-508.529"/>
<text text-anchor="middle" x="1689" y="-532.9" style="font-family:Times New Roman;font-size:14.00;">eslif</text>
</g>
<!-- 90154430 -->
<g id="node71" class="node"><title>90154430</title>
<polygon style="fill:none;stroke:black;" points="2091,-369.5 1621,-369.5 1621,-270.5 2091,-270.5 2091,-369.5"/>
<text text-anchor="middle" x="1856" y="-356.5" style="font-family:Times New Roman;font-size:10.00;">primary_statement ::= if ( Expr ) statement elsif_list else &#45;&gt; [[statement_term, }]]</text>
<text text-anchor="middle" x="1856" y="-343.5" style="font-family:Times New Roman;font-size:10.00;">else ::= else &#45;&gt; statement [[Expr, if, return, statement_term, {, }]]</text>
<text text-anchor="middle" x="1856" y="-330.5" style="font-family:Times New Roman;font-size:10.00;">statement ::= &#45;&gt; primary_statement statement_term [[Expr, if, return, statement_term, {, }]]</text>
<text text-anchor="middle" x="1856" y="-317.5" style="font-family:Times New Roman;font-size:10.00;">statement ::= &#45;&gt; { statement primary_statement } [[Expr, if, return, statement_term, {, }]]</text>
<text text-anchor="middle" x="1856" y="-304.5" style="font-family:Times New Roman;font-size:10.00;">primary_statement ::= &#45;&gt; Expr = Expr [[statement_term]]</text>
<text text-anchor="middle" x="1856" y="-291.5" style="font-family:Times New Roman;font-size:10.00;">primary_statement ::= &#45;&gt; if ( Expr ) statement elsif_list else [[statement_term]]</text>
<text text-anchor="middle" x="1856" y="-278.5" style="font-family:Times New Roman;font-size:10.00;">primary_statement ::= &#45;&gt; return Expr [[statement_term]]</text>
</g>
<!-- 90123230&#45;&gt;90154430 -->
<g id="edge84" class="edge"><title>90123230&#45;&gt;90154430</title>
<path style="fill:none;stroke:black;" d="M2282,-437C2238,-421 2183,-402 2133,-388 2115,-383 2096,-377 2077,-372"/>
<polygon style="fill:black;stroke:black;" points="2077.49,-368.529 2067,-370 2076.12,-375.393 2077.49,-368.529"/>
<text text-anchor="middle" x="2208" y="-392.9" style="font-family:Times New Roman;font-size:14.00;">else</text>
</g>
<!-- 90152180 -->
<g id="node73" class="node"><title>90152180</title>
<polygon style="fill:none;stroke:black;" points="2621,-338 2189,-338 2189,-302 2621,-302 2621,-338"/>
<text text-anchor="middle" x="2405" y="-317.5" style="font-family:Times New Roman;font-size:10.00;">elsif_list ::= elsif_list single_elsif &#45;&gt; [[Expr, if, return, single_elsif, statement_term, {, }]]</text>
</g>
<!-- 90123230&#45;&gt;90152180 -->
<g id="edge86" class="edge"><title>90123230&#45;&gt;90152180</title>
<path style="fill:none;stroke:black;" d="M2372,-437C2379,-411 2390,-373 2397,-348"/>
<polygon style="fill:black;stroke:black;" points="2400.48,-348.584 2400,-338 2393.77,-346.573 2400.48,-348.584"/>
<text text-anchor="middle" x="2420" y="-392.9" style="font-family:Times New Roman;font-size:14.00;">single_elsif</text>
</g>
<!-- 90151140&#45;&gt;90100100 -->
<g id="edge104" class="edge"><title>90151140&#45;&gt;90100100</title>
<path style="fill:none;stroke:black;" d="M1112,-424C1041,-408 974,-389 944,-370 888,-333 846,-263 826,-225"/>
<polygon style="fill:black;stroke:black;" points="829.26,-223.717 822,-216 822.863,-226.56 829.26,-223.717"/>
<text text-anchor="middle" x="1013" y="-315.9" style="font-family:Times New Roman;font-size:14.00;">primary_statement</text>
</g>
<!-- 90151140&#45;&gt;90129450 -->
<g id="edge106" class="edge"><title>90151140&#45;&gt;90129450</title>
<path style="fill:none;stroke:black;" d="M1284,-510C1260,-532 1238,-561 1238,-594 1238,-1118 1238,-1118 1238,-1118 1238,-1143 1246,-1170 1256,-1193"/>
<polygon style="fill:black;stroke:black;" points="1252.74,-1194.28 1260,-1202 1259.14,-1191.44 1252.74,-1194.28"/>
<text text-anchor="middle" x="1243" y="-876.9" style="font-family:Times New Roman;font-size:14.00;">{</text>
</g>
<!-- 90151140&#45;&gt;90127580 -->
<g id="edge108" class="edge"><title>90151140&#45;&gt;90127580</title>
<path style="fill:none;stroke:black;" d="M1452,-424C1474,-410 1494,-392 1506,-370 1528,-331 1527,-309 1506,-270 1495,-249 1474,-233 1455,-221"/>
<polygon style="fill:black;stroke:black;" points="1456.44,-217.797 1446,-216 1453.04,-223.916 1456.44,-217.797"/>
<text text-anchor="middle" x="1540" y="-315.9" style="font-family:Times New Roman;font-size:14.00;">Expr</text>
</g>
<!-- 90151140&#45;&gt;90126440 -->
<g id="edge110" class="edge"><title>90151140&#45;&gt;90126440</title>
<path style="fill:none;stroke:black;" d="M1344,-510C1336,-604 1331,-830 1456,-944 1484,-968 1558,-985 1633,-997"/>
<polygon style="fill:black;stroke:black;" points="1632.7,-1000.49 1643,-998 1633.4,-993.522 1632.7,-1000.49"/>
<text text-anchor="middle" x="1375" y="-786.9" style="font-family:Times New Roman;font-size:14.00;">if</text>
</g>
<!-- 90151140&#45;&gt;90153020 -->
<g id="edge112" class="edge"><title>90151140&#45;&gt;90153020</title>
<path style="fill:none;stroke:black;" d="M1613,-431C1631,-428 1648,-426 1665,-424 1761,-411 2023,-430 2100,-370 2136,-340 2099,-299 2136,-270 2164,-247 2359,-225 2505,-211"/>
<polygon style="fill:black;stroke:black;" points="2505.4,-214.478 2515,-210 2504.7,-207.512 2505.4,-214.478"/>
<text text-anchor="middle" x="2158" y="-315.9" style="font-family:Times New Roman;font-size:14.00;">return</text>
</g>
<!-- 90150710 -->
<g id="node84" class="node"><title>90150710</title>
<polygon style="fill:none;stroke:black;" points="1497,-338 1085,-338 1085,-302 1497,-302 1497,-338"/>
<text text-anchor="middle" x="1291" y="-317.5" style="font-family:Times New Roman;font-size:10.00;">elsif_list ::= eslif statement &#45;&gt; [[Expr, if, return, single_elsif, statement_term, {, }]]</text>
</g>
<!-- 90151140&#45;&gt;90150710 -->
<g id="edge102" class="edge"><title>90151140&#45;&gt;90150710</title>
<path style="fill:none;stroke:black;" d="M1332,-424C1323,-399 1311,-369 1302,-347"/>
<polygon style="fill:black;stroke:black;" points="1305.26,-345.717 1298,-338 1298.86,-348.56 1305.26,-345.717"/>
<text text-anchor="middle" x="1362" y="-392.9" style="font-family:Times New Roman;font-size:14.00;">statement</text>
</g>
<!-- 90154430&#45;&gt;90100100 -->
<g id="edge90" class="edge"><title>90154430&#45;&gt;90100100</title>
<path style="fill:none;stroke:black;" d="M1621,-277C1603,-275 1586,-272 1569,-270 1401,-248 1211,-229 1062,-217"/>
<polygon style="fill:black;stroke:black;" points="1062.3,-213.512 1052,-216 1061.6,-220.478 1062.3,-213.512"/>
<text text-anchor="middle" x="1493" y="-238.9" style="font-family:Times New Roman;font-size:14.00;">primary_statement</text>
</g>
<!-- 90154430&#45;&gt;90129450 -->
<g id="edge92" class="edge"><title>90154430&#45;&gt;90129450</title>
<path style="fill:none;stroke:black;" d="M1726,-370C1700,-384 1675,-402 1655,-424 1616,-467 1643,-502 1603,-546 1533,-624 1473,-595 1406,-678 1370,-723 1389,-750 1358,-800 1333,-841 1284,-832 1284,-881 1284,-1118 1284,-1118 1284,-1118 1284,-1142 1284,-1169 1284,-1192"/>
<polygon style="fill:black;stroke:black;" points="1280.5,-1192 1284,-1202 1287.5,-1192 1280.5,-1192"/>
<text text-anchor="middle" x="1348" y="-831.9" style="font-family:Times New Roman;font-size:14.00;">{</text>
</g>
<!-- 90154430&#45;&gt;90127580 -->
<g id="edge94" class="edge"><title>90154430&#45;&gt;90127580</title>
<path style="fill:none;stroke:black;" d="M1726,-270C1688,-257 1646,-244 1607,-234 1584,-228 1560,-222 1536,-218"/>
<polygon style="fill:black;stroke:black;" points="1536.49,-214.529 1526,-216 1535.12,-221.393 1536.49,-214.529"/>
<text text-anchor="middle" x="1693" y="-238.9" style="font-family:Times New Roman;font-size:14.00;">Expr</text>
</g>
<!-- 90154430&#45;&gt;90126440 -->
<g id="edge96" class="edge"><title>90154430&#45;&gt;90126440</title>
<path style="fill:none;stroke:black;" d="M1942,-370C2023,-424 2130,-518 2100,-624 2054,-784 1991,-802 1902,-944 1891,-960 1892,-966 1879,-980 1874,-985 1869,-989 1864,-993"/>
<polygon style="fill:black;stroke:black;" points="1862.04,-990.084 1855,-998 1865.44,-996.203 1862.04,-990.084"/>
<text text-anchor="middle" x="2084" y="-716.9" style="font-family:Times New Roman;font-size:14.00;">if</text>
</g>
<!-- 90154430&#45;&gt;90153020 -->
<g id="edge98" class="edge"><title>90154430&#45;&gt;90153020</title>
<path style="fill:none;stroke:black;" d="M1959,-270C1993,-256 2032,-242 2069,-234 2149,-215 2356,-206 2505,-201"/>
<polygon style="fill:black;stroke:black;" points="2505,-204.5 2515,-201 2505,-197.5 2505,-204.5"/>
<text text-anchor="middle" x="2091" y="-238.9" style="font-family:Times New Roman;font-size:14.00;">return</text>
</g>
<!-- 90154000 -->
<g id="node75" class="node"><title>90154000</title>
<polygon style="fill:none;stroke:black;" points="2025,-216 1687,-216 1687,-180 2025,-180 2025,-216"/>
<text text-anchor="middle" x="1856" y="-195.5" style="font-family:Times New Roman;font-size:10.00;">else ::= else statement &#45;&gt; [[Expr, if, return, statement_term, {, }]]</text>
</g>
<!-- 90154430&#45;&gt;90154000 -->
<g id="edge88" class="edge"><title>90154430&#45;&gt;90154000</title>
<path style="fill:none;stroke:black;" d="M1856,-270C1856,-255 1856,-239 1856,-226"/>
<polygon style="fill:black;stroke:black;" points="1859.5,-226 1856,-216 1852.5,-226 1859.5,-226"/>
<text text-anchor="middle" x="1891" y="-238.9" style="font-family:Times New Roman;font-size:14.00;">statement</text>
</g>
</g>
</svg>
